<svg xmlns="http://www.w3.org/2000/svg" xmlns:xlink="http://www.w3.org/1999/xlink" width="500" zoomAndPan="magnify" viewBox="0 0 375 149.999998" height="200" preserveAspectRatio="xMidYMid meet" version="1.0"><path fill="#000000" d="M 88.042969 99.820312 C 88.042969 95.792969 87.320312 92.386719 85.886719 89.597656 C 84.589844 87.265625 83.21875 86.097656 81.785156 86.097656 C 80.84375 86.097656 80.21875 86.523438 79.914062 87.367188 C 82.703125 90.546875 84.097656 94.621094 84.097656 99.597656 C 84.097656 108.246094 80.691406 115.246094 73.878906 120.589844 C 67.066406 125.9375 57.890625 128.605469 46.359375 128.605469 C 36.175781 128.605469 27.253906 125.671875 19.597656 119.796875 C 11.390625 113.585938 7.289062 105.789062 7.289062 96.394531 C 7.289062 90.027344 9.546875 85.128906 14.066406 81.691406 C 17.753906 78.96875 22.378906 77.554688 27.949219 77.445312 C 28 83.714844 29.871094 88.742188 33.570312 92.546875 C 37.28125 96.347656 42.261719 98.25 48.527344 98.25 C 51.558594 98.25 53.074219 97.40625 53.074219 95.714844 C 53.074219 95.328125 53 94.902344 52.855469 94.449219 C 51.714844 94.746094 50.445312 94.890625 49.050781 94.890625 C 43.632812 94.890625 39.390625 93.355469 36.328125 90.28125 C 33.273438 87.199219 31.75 83.132812 31.75 78.082031 C 31.75 73.035156 33.367188 68.996094 36.597656 65.960938 C 39.832031 62.929688 43.808594 61.414062 48.527344 61.414062 C 50.214844 61.414062 51.382812 61.488281 52.03125 61.636719 C 52.175781 61.34375 52.25 61.015625 52.25 60.667969 C 52.25 58.925781 50.597656 58.054688 47.292969 58.054688 C 43.984375 58.054688 40.625 59.101562 37.214844 61.191406 C 33.8125 63.28125 31.171875 66.195312 29.292969 69.921875 C 23.21875 69.425781 18.394531 66.792969 14.8125 62.015625 C 11.683594 57.84375 10.125 53.316406 10.125 48.4375 C 13.449219 42.429688 17.699219 37.585938 22.878906 33.910156 C 29.691406 29.136719 37.539062 26.746094 46.4375 26.746094 C 57.71875 26.746094 66.589844 29.53125 73.054688 35.097656 C 79.519531 40.664062 82.75 48.050781 82.75 57.246094 C 82.75 59.824219 82.5 61.835938 82.007812 63.28125 C 82.40625 63.578125 82.992188 63.726562 83.765625 63.726562 C 84.535156 63.726562 85.214844 63.085938 85.808594 61.792969 C 86.410156 60.496094 86.710938 58.703125 86.710938 56.421875 C 86.710938 48.417969 84.324219 41.679688 79.550781 36.207031 C 79.84375 33.429688 81.332031 31.046875 84.019531 29.058594 L 122.644531 29.058594 C 124.332031 31.691406 125.511719 33.980469 126.179688 35.921875 C 126.851562 37.855469 127.191406 40.144531 127.191406 42.78125 C 127.191406 47.503906 125.675781 51.976562 122.644531 56.199219 L 118.921875 56.199219 L 118.921875 99.597656 C 118.921875 102.882812 119.242188 105.609375 119.890625 107.773438 C 120.53125 109.925781 121.625 111.921875 123.167969 113.761719 C 122.269531 118.480469 120.054688 122.191406 116.53125 124.882812 C 113 127.570312 108.785156 128.90625 103.886719 128.90625 C 98.996094 128.90625 94.695312 127.828125 90.988281 125.660156 C 87.289062 123.496094 84.792969 120.226562 83.496094 115.851562 C 86.527344 110.933594 88.042969 105.585938 88.042969 99.820312 Z M 88.042969 99.820312 " fill-opacity="1" fill-rule="nonzero"/><path fill="#000000" d="M 165.734375 75.433594 C 165.234375 74.941406 164.640625 74.691406 163.945312 74.691406 C 162.855469 74.691406 162.109375 75.480469 161.710938 77.050781 C 161.316406 78.617188 161.125 81.78125 161.125 86.542969 L 161.125 94.144531 C 161.125 95.488281 161.289062 96.4375 161.632812 96.984375 C 161.980469 97.53125 162.550781 97.804688 163.34375 97.804688 C 164.140625 97.804688 164.722656 97.632812 165.070312 97.285156 L 165.070312 87.285156 C 165.070312 82.417969 165.292969 78.46875 165.734375 75.433594 Z M 160.363281 31.359375 C 163 28.285156 165.914062 25.96875 169.09375 24.402344 C 172.269531 22.828125 176.324219 22.042969 181.246094 22.042969 C 187.210938 22.042969 192.058594 23.714844 195.789062 27.046875 C 199.613281 30.621094 201.527344 35.441406 201.527344 41.511719 L 201.527344 90.722656 C 201.527344 98.132812 203.316406 102.953125 206.898438 105.191406 C 206.949219 105.441406 206.976562 105.914062 206.976562 106.597656 L 206.976562 107.945312 C 206.976562 115.003906 204.835938 120.496094 200.558594 124.421875 C 196.789062 127.910156 192.113281 129.652344 186.539062 129.652344 C 182.660156 129.652344 179.304688 128.828125 176.476562 127.179688 C 173.148438 125.304688 170.8125 122.71875 169.472656 119.433594 C 167.78125 119.433594 166.9375 120.253906 166.9375 121.890625 C 166.9375 122.640625 167.222656 123.5 167.792969 124.472656 C 168.363281 125.433594 169.144531 126.289062 170.140625 127.039062 C 167.199219 128.78125 163.398438 129.652344 158.730469 129.652344 C 152.414062 129.652344 146.507812 128.203125 141.019531 125.296875 C 135.523438 122.378906 131.164062 117.992188 127.929688 112.128906 C 124.199219 105.410156 122.339844 97.285156 122.339844 87.746094 C 122.339844 75.019531 125.902344 65.027344 133.03125 57.769531 C 140.171875 50.503906 149.28125 46.867188 160.363281 46.867188 C 166.929688 46.867188 172.652344 48.117188 177.523438 50.609375 C 178.070312 50.0625 178.347656 49.492188 178.347656 48.898438 C 178.347656 47.398438 176.574219 46.132812 173.039062 45.09375 C 169.507812 44.046875 165.960938 43.527344 162.390625 43.527344 C 162.390625 38.457031 161.714844 34.398438 160.363281 31.359375 Z M 160.363281 31.359375 " fill-opacity="1" fill-rule="nonzero"/><path fill="#000000" d="M 247.089844 61.191406 L 247.089844 90.722656 C 247.089844 98.132812 248.882812 102.953125 252.460938 105.191406 C 252.503906 105.441406 252.527344 105.914062 252.527344 106.597656 L 252.527344 107.945312 C 252.527344 115.257812 250.539062 120.75 246.570312 124.421875 C 242.894531 127.910156 237.980469 129.652344 231.835938 129.652344 C 225.695312 129.652344 220.640625 127.910156 216.671875 124.421875 C 211.640625 120 209.128906 113.539062 209.128906 105.046875 L 209.128906 56.566406 C 210.023438 55.921875 211 55.40625 212.046875 55.011719 C 213.089844 54.613281 214.183594 54.109375 215.324219 53.507812 C 213.179688 52.421875 211.238281 50.523438 209.496094 47.820312 C 207.757812 45.105469 206.894531 41.933594 206.894531 38.296875 C 206.894531 32.035156 208.957031 26.917969 213.074219 22.945312 C 217.203125 18.964844 222.265625 16.972656 228.253906 16.972656 C 234.25 16.972656 239.273438 19 243.320312 23.054688 C 247.375 27.105469 249.40625 32.179688 249.40625 38.296875 C 249.40625 43.21875 247.859375 47.535156 244.777344 51.242188 C 241.691406 54.941406 237.9375 57.261719 233.511719 58.210938 C 233.511719 60.105469 234.234375 61.050781 235.683594 61.050781 C 238.21875 61.050781 240.800781 60.050781 243.433594 58.054688 C 245.417969 59.597656 246.636719 60.644531 247.089844 61.191406 Z M 247.089844 61.191406 " fill-opacity="1" fill-rule="nonzero"/><path fill="#000000" d="M 262.976562 81.171875 L 267.585938 81.171875 C 270.078125 81.171875 271.324219 80.355469 271.324219 78.714844 C 271.324219 78.515625 271.269531 78.21875 271.167969 77.828125 L 254.46875 77.828125 C 253.367188 74.339844 252.820312 70.453125 252.820312 66.152344 C 252.820312 61.851562 253.144531 58.363281 253.800781 55.679688 C 256.628906 53.882812 260.535156 51.148438 265.511719 47.472656 C 266.894531 44.09375 268.703125 38.722656 270.945312 31.359375 C 271.238281 30.367188 271.585938 29.402344 271.992188 28.457031 C 275.863281 27.46875 280.285156 26.96875 285.25 26.96875 C 290.226562 26.96875 295.125 27.492188 299.953125 28.539062 L 299.953125 46.804688 L 312.851562 46.804688 C 315.734375 51.179688 317.175781 56.324219 317.175781 62.238281 C 317.175781 64.921875 316.800781 67.683594 316.050781 70.523438 C 315.3125 73.355469 314.246094 75.765625 312.851562 77.75 L 302.1875 77.75 L 302.1875 89.011719 C 302.1875 95.375 304.851562 98.550781 310.175781 98.550781 L 313.375 98.550781 C 314.421875 102.332031 314.941406 105.613281 314.941406 108.390625 C 314.941406 115.257812 312.792969 120.519531 308.496094 124.171875 C 304.191406 127.828125 297.949219 129.652344 289.765625 129.652344 C 281.589844 129.652344 275.078125 127.378906 270.230469 122.824219 C 265.390625 118.273438 262.976562 111.574219 262.976562 102.734375 Z M 262.976562 81.171875 " fill-opacity="1" fill-rule="nonzero"/><path fill="#000000" d="M 358.789062 61.191406 L 358.789062 90.722656 C 358.789062 98.132812 360.578125 102.953125 364.160156 105.191406 C 364.199219 105.441406 364.222656 105.914062 364.222656 106.597656 L 364.222656 107.945312 C 364.222656 115.257812 362.234375 120.75 358.265625 124.421875 C 354.589844 127.910156 349.675781 129.652344 343.53125 129.652344 C 337.390625 129.652344 332.335938 127.910156 328.367188 124.421875 C 323.335938 120 320.824219 113.539062 320.824219 105.046875 L 320.824219 56.566406 C 321.722656 55.921875 322.695312 55.40625 323.742188 55.011719 C 324.785156 54.613281 325.878906 54.109375 327.019531 53.507812 C 324.875 52.421875 322.933594 50.523438 321.191406 47.820312 C 319.457031 45.105469 318.59375 41.933594 318.59375 38.296875 C 318.59375 32.035156 320.652344 26.917969 324.769531 22.945312 C 328.898438 18.964844 333.960938 16.972656 339.949219 16.972656 C 345.945312 16.972656 350.96875 19 355.015625 23.054688 C 359.074219 27.105469 361.101562 32.179688 361.101562 38.296875 C 361.101562 43.21875 359.554688 47.535156 356.472656 51.242188 C 353.390625 54.941406 349.632812 57.261719 345.210938 58.210938 C 345.210938 60.105469 345.929688 61.050781 347.378906 61.050781 C 349.914062 61.050781 352.496094 60.050781 355.128906 58.054688 C 357.113281 59.597656 358.332031 60.644531 358.789062 61.191406 Z M 358.789062 61.191406 " fill-opacity="1" fill-rule="nonzero"/><path fill="black" d="M 91.054688 94.867188 C 91.054688 90.949219 90.355469 87.636719 88.960938 84.917969 C 87.695312 82.648438 86.363281 81.511719 84.96875 81.511719 C 84.050781 81.511719 83.441406 81.921875 83.148438 82.746094 C 85.859375 85.84375 87.21875 89.808594 87.21875 94.644531 C 87.21875 103.066406 83.898438 109.878906 77.269531 115.085938 C 70.632812 120.28125 61.703125 122.878906 50.476562 122.878906 C 40.558594 122.878906 31.875 120.027344 24.429688 114.324219 C 16.445312 108.273438 12.453125 100.675781 12.453125 91.523438 C 12.453125 85.339844 14.65625 80.574219 19.058594 77.234375 C 22.640625 74.574219 27.140625 73.191406 32.558594 73.082031 C 32.597656 79.191406 34.417969 84.09375 38.023438 87.800781 C 41.636719 91.5 46.488281 93.347656 52.585938 93.347656 C 55.539062 93.347656 57.019531 92.523438 57.019531 90.875 C 57.019531 90.488281 56.945312 90.074219 56.800781 89.640625 C 55.691406 89.925781 54.453125 90.066406 53.089844 90.066406 C 47.820312 90.066406 43.695312 88.570312 40.71875 85.566406 C 37.738281 82.570312 36.25 78.613281 36.25 73.699219 C 36.25 68.789062 37.820312 64.859375 40.972656 61.914062 C 44.117188 58.957031 47.988281 57.476562 52.585938 57.476562 C 54.230469 57.476562 55.371094 57.550781 56.007812 57.699219 C 56.140625 57.414062 56.210938 57.105469 56.210938 56.765625 C 56.210938 55.066406 54.601562 54.214844 51.378906 54.214844 C 48.167969 54.214844 44.902344 55.234375 41.589844 57.269531 C 38.269531 59.300781 35.695312 62.132812 33.855469 65.761719 C 27.953125 65.28125 23.257812 62.714844 19.773438 58.0625 C 16.730469 54 15.210938 49.59375 15.210938 44.847656 C 18.449219 39 22.585938 34.28125 27.613281 30.699219 C 34.246094 26.054688 41.894531 23.730469 50.554688 23.730469 C 61.539062 23.730469 70.175781 26.4375 76.460938 31.859375 C 82.753906 37.277344 85.902344 44.464844 85.902344 53.421875 C 85.902344 55.9375 85.660156 57.898438 85.175781 59.300781 C 85.5625 59.585938 86.132812 59.726562 86.886719 59.726562 C 87.636719 59.726562 88.300781 59.101562 88.882812 57.839844 C 89.460938 56.585938 89.753906 54.84375 89.753906 52.613281 C 89.753906 44.828125 87.429688 38.273438 82.78125 32.949219 C 83.074219 30.238281 84.53125 27.914062 87.140625 25.980469 L 124.738281 25.980469 C 126.382812 28.546875 127.535156 30.777344 128.191406 32.664062 C 128.84375 34.546875 129.171875 36.769531 129.171875 39.335938 C 129.171875 43.929688 127.691406 48.289062 124.738281 52.40625 L 121.109375 52.40625 L 121.109375 94.644531 C 121.109375 97.839844 121.417969 100.488281 122.042969 102.601562 C 122.675781 104.703125 123.742188 106.652344 125.242188 108.445312 C 124.375 113.039062 122.222656 116.648438 118.78125 119.265625 C 115.34375 121.878906 111.246094 123.179688 106.484375 123.179688 C 101.71875 123.179688 97.53125 122.132812 93.921875 120.027344 C 90.316406 117.917969 87.886719 114.730469 86.632812 110.472656 C 89.578125 105.679688 91.054688 100.476562 91.054688 94.867188 Z M 91.054688 94.867188 " fill-opacity="1" fill-rule="nonzero"/><path fill="black" d="M 166.6875 71.132812 C 166.199219 70.652344 165.617188 70.40625 164.945312 70.40625 C 163.875 70.40625 163.144531 71.171875 162.757812 72.703125 C 162.378906 74.222656 162.1875 77.304688 162.1875 81.941406 L 162.1875 89.355469 C 162.1875 90.652344 162.355469 91.574219 162.695312 92.109375 C 163.03125 92.640625 163.585938 92.902344 164.359375 92.902344 C 165.136719 92.902344 165.695312 92.738281 166.039062 92.398438 L 166.039062 82.667969 C 166.039062 77.925781 166.25 74.082031 166.6875 71.132812 Z M 161.457031 28.230469 C 164.023438 25.230469 166.851562 22.96875 169.949219 21.449219 C 173.042969 19.917969 176.988281 19.152344 181.785156 19.152344 C 187.59375 19.152344 192.308594 20.773438 195.933594 24.015625 C 199.660156 27.5 201.527344 32.199219 201.527344 38.101562 L 201.527344 86.011719 C 201.527344 93.226562 203.269531 97.921875 206.753906 100.097656 C 206.808594 100.34375 206.835938 100.800781 206.835938 101.476562 L 206.835938 102.773438 C 206.835938 109.648438 204.75 115 200.59375 118.824219 C 196.90625 122.207031 192.355469 123.894531 186.933594 123.894531 C 183.164062 123.894531 179.902344 123.09375 177.144531 121.5 C 173.898438 119.664062 171.621094 117.152344 170.316406 113.960938 C 168.667969 113.960938 167.84375 114.761719 167.84375 116.351562 C 167.84375 117.082031 168.121094 117.917969 168.683594 118.855469 C 169.242188 119.796875 170.003906 120.628906 170.964844 121.359375 C 168.113281 123.046875 164.410156 123.894531 159.859375 123.894531 C 153.71875 123.894531 147.976562 122.480469 142.621094 119.648438 C 137.273438 116.820312 133.027344 112.550781 129.882812 106.847656 C 126.257812 100.308594 124.449219 92.398438 124.449219 83.113281 C 124.449219 70.722656 127.917969 60.996094 134.855469 53.929688 C 141.804688 46.863281 150.671875 43.328125 161.457031 43.328125 C 167.847656 43.328125 173.414062 44.539062 178.15625 46.957031 C 178.683594 46.429688 178.949219 45.875 178.949219 45.292969 C 178.949219 43.835938 177.230469 42.597656 173.800781 41.585938 C 170.367188 40.570312 166.910156 40.066406 163.421875 40.066406 C 163.421875 35.121094 162.765625 31.175781 161.457031 28.230469 Z M 161.457031 28.230469 " fill-opacity="1" fill-rule="nonzero"/><path fill="black" d="M 245.882812 57.269531 L 245.882812 86.011719 C 245.882812 93.226562 247.617188 97.921875 251.097656 100.097656 C 251.148438 100.34375 251.175781 100.800781 251.175781 101.476562 L 251.175781 102.773438 C 251.175781 109.894531 249.234375 115.242188 245.359375 118.824219 C 241.78125 122.207031 237 123.894531 231.023438 123.894531 C 225.054688 123.894531 220.128906 122.207031 216.253906 118.824219 C 211.375 114.515625 208.9375 108.222656 208.9375 99.953125 L 208.9375 52.769531 C 209.800781 52.136719 210.742188 51.628906 211.757812 51.25 C 212.769531 50.863281 213.835938 50.375 214.957031 49.792969 C 212.871094 48.726562 210.984375 46.878906 209.285156 44.246094 C 207.59375 41.609375 206.75 38.519531 206.75 34.980469 C 206.75 28.886719 208.753906 23.902344 212.769531 20.039062 C 216.792969 16.164062 221.722656 14.222656 227.550781 14.222656 C 233.382812 14.222656 238.265625 16.199219 242.207031 20.148438 C 246.15625 24.089844 248.132812 29.035156 248.132812 34.980469 C 248.132812 39.777344 246.628906 43.972656 243.617188 47.574219 C 240.617188 51.179688 236.96875 53.4375 232.667969 54.355469 C 232.667969 56.195312 233.371094 57.113281 234.777344 57.113281 C 237.238281 57.113281 239.75 56.144531 242.320312 54.214844 C 244.25 55.714844 245.441406 56.730469 245.882812 57.269531 Z M 245.882812 57.269531 " fill-opacity="1" fill-rule="nonzero"/><path fill="black" d="M 261.332031 76.710938 L 265.832031 76.710938 C 268.246094 76.710938 269.460938 75.914062 269.460938 74.320312 C 269.460938 74.128906 269.410156 73.839844 269.316406 73.449219 L 253.0625 73.449219 C 251.992188 70.070312 251.460938 66.285156 251.460938 62.101562 C 251.460938 57.914062 251.777344 54.511719 252.410156 51.898438 C 255.167969 50.15625 258.964844 47.496094 263.804688 43.914062 C 265.152344 40.617188 266.917969 35.390625 269.09375 28.230469 C 269.386719 27.257812 269.730469 26.3125 270.109375 25.394531 C 273.886719 24.433594 278.199219 23.953125 283.039062 23.953125 C 287.875 23.953125 292.644531 24.457031 297.34375 25.472656 L 297.34375 43.25 L 309.894531 43.25 C 312.699219 47.519531 314.105469 52.53125 314.105469 58.285156 C 314.105469 60.894531 313.742188 63.578125 313.015625 66.332031 C 312.285156 69.089844 311.242188 71.441406 309.894531 73.382812 L 299.515625 73.382812 L 299.515625 84.347656 C 299.515625 90.539062 302.101562 93.632812 307.277344 93.632812 L 310.398438 93.632812 C 311.414062 97.308594 311.921875 100.503906 311.921875 103.21875 C 311.921875 109.894531 309.828125 115.011719 305.648438 118.570312 C 301.464844 122.121094 295.386719 123.894531 287.425781 123.894531 C 279.460938 123.894531 273.121094 121.683594 268.398438 117.253906 C 263.683594 112.832031 261.332031 106.316406 261.332031 97.703125 Z M 261.332031 76.710938 " fill-opacity="1" fill-rule="nonzero"/><path fill="black" d="M 354.613281 57.269531 L 354.613281 86.011719 C 354.613281 93.226562 356.347656 97.921875 359.824219 100.097656 C 359.875 100.34375 359.902344 100.800781 359.902344 101.476562 L 359.902344 102.773438 C 359.902344 109.894531 357.960938 115.242188 354.089844 118.824219 C 350.507812 122.207031 345.726562 123.894531 339.75 123.894531 C 333.78125 123.894531 328.859375 122.207031 324.984375 118.824219 C 320.105469 114.515625 317.664062 108.222656 317.664062 99.953125 L 317.664062 52.769531 C 318.527344 52.136719 319.46875 51.628906 320.484375 51.25 C 321.5 50.863281 322.5625 50.375 323.683594 49.792969 C 321.601562 48.726562 319.710938 46.878906 318.011719 44.246094 C 316.320312 41.609375 315.476562 38.519531 315.476562 34.980469 C 315.476562 28.886719 317.480469 23.902344 321.5 20.039062 C 325.523438 16.164062 330.449219 14.222656 336.28125 14.222656 C 342.109375 14.222656 346.996094 16.199219 350.9375 20.148438 C 354.886719 24.089844 356.863281 29.035156 356.863281 34.980469 C 356.863281 39.777344 355.355469 43.972656 352.347656 47.574219 C 349.34375 51.179688 345.695312 53.4375 341.398438 54.355469 C 341.398438 56.195312 342.097656 57.113281 343.503906 57.113281 C 345.964844 57.113281 348.480469 56.144531 351.046875 54.214844 C 352.980469 55.714844 354.167969 56.730469 354.613281 57.269531 Z M 354.613281 57.269531 " fill-opacity="1" fill-rule="nonzero"/></svg>