<svg xmlns="http://www.w3.org/2000/svg" xmlns:xlink="http://www.w3.org/1999/xlink" width="500" zoomAndPan="magnify" viewBox="0 0 375 374.999991" height="500" preserveAspectRatio="xMidYMid meet" version="1.0"><defs><g/></defs><rect x="-37.5" width="450" fill="#ffffff" y="-37.499999" height="449.999989" fill-opacity="1"/><rect x="-37.5" width="450" fill="#ffffff" y="-37.499999" height="449.999989" fill-opacity="1"/><g fill="#000000" fill-opacity="1"><g transform="translate(198.118189, 228.199962)"><g><path d="M 14.828125 -17.453125 C 14.660156 -17.617188 14.460938 -17.703125 14.234375 -17.703125 C 13.867188 -17.703125 13.617188 -17.441406 13.484375 -16.921875 C 13.359375 -16.410156 13.296875 -15.363281 13.296875 -13.78125 L 13.296875 -11.28125 C 13.296875 -10.832031 13.351562 -10.515625 13.46875 -10.328125 C 13.582031 -10.148438 13.769531 -10.0625 14.03125 -10.0625 C 14.289062 -10.0625 14.476562 -10.117188 14.59375 -10.234375 L 14.59375 -13.546875 C 14.59375 -15.148438 14.671875 -16.453125 14.828125 -17.453125 Z M 13.046875 -32 C 13.921875 -33.019531 14.878906 -33.785156 15.921875 -34.296875 C 16.972656 -34.816406 18.3125 -35.078125 19.9375 -35.078125 C 21.90625 -35.078125 23.507812 -34.53125 24.75 -33.4375 C 26.007812 -32.25 26.640625 -30.65625 26.640625 -28.65625 L 26.640625 -12.40625 C 26.640625 -9.957031 27.226562 -8.363281 28.40625 -7.625 C 28.425781 -7.550781 28.4375 -7.398438 28.4375 -7.171875 L 28.4375 -6.71875 C 28.4375 -4.382812 27.726562 -2.570312 26.3125 -1.28125 C 25.070312 -0.132812 23.53125 0.4375 21.6875 0.4375 C 20.40625 0.4375 19.296875 0.164062 18.359375 -0.375 C 17.265625 -1 16.492188 -1.851562 16.046875 -2.9375 C 15.492188 -2.9375 15.21875 -2.664062 15.21875 -2.125 C 15.21875 -1.875 15.3125 -1.585938 15.5 -1.265625 C 15.6875 -0.941406 15.945312 -0.660156 16.28125 -0.421875 C 15.3125 0.148438 14.050781 0.4375 12.5 0.4375 C 10.414062 0.4375 8.46875 -0.0390625 6.65625 -1 C 4.84375 -1.957031 3.40625 -3.40625 2.34375 -5.34375 C 1.113281 -7.5625 0.5 -10.242188 0.5 -13.390625 C 0.5 -17.597656 1.675781 -20.898438 4.03125 -23.296875 C 6.382812 -25.691406 9.390625 -26.890625 13.046875 -26.890625 C 15.210938 -26.890625 17.101562 -26.476562 18.71875 -25.65625 C 18.894531 -25.832031 18.984375 -26.019531 18.984375 -26.21875 C 18.984375 -26.707031 18.398438 -27.125 17.234375 -27.46875 C 16.066406 -27.820312 14.894531 -28 13.71875 -28 C 13.71875 -29.664062 13.492188 -31 13.046875 -32 Z M 13.046875 -32 "/></g></g></g><g fill="#000000" fill-opacity="1"><g transform="translate(226.360894, 228.199962)"><g><path d="M 13.4375 -22.15625 L 13.4375 -12.40625 C 13.4375 -9.957031 14.03125 -8.363281 15.21875 -7.625 C 15.226562 -7.550781 15.234375 -7.398438 15.234375 -7.171875 L 15.234375 -6.71875 C 15.234375 -4.3125 14.578125 -2.5 13.265625 -1.28125 C 12.054688 -0.132812 10.4375 0.4375 8.40625 0.4375 C 6.375 0.4375 4.703125 -0.132812 3.390625 -1.28125 C 1.734375 -2.738281 0.90625 -4.875 0.90625 -7.6875 L 0.90625 -23.6875 C 1.207031 -23.894531 1.53125 -24.066406 1.875 -24.203125 C 2.21875 -24.335938 2.578125 -24.5 2.953125 -24.6875 C 2.242188 -25.050781 1.601562 -25.679688 1.03125 -26.578125 C 0.457031 -27.472656 0.171875 -28.519531 0.171875 -29.71875 C 0.171875 -31.78125 0.851562 -33.46875 2.21875 -34.78125 C 3.582031 -36.09375 5.25 -36.75 7.21875 -36.75 C 9.195312 -36.75 10.851562 -36.082031 12.1875 -34.75 C 13.53125 -33.414062 14.203125 -31.738281 14.203125 -29.71875 C 14.203125 -28.09375 13.691406 -26.664062 12.671875 -25.4375 C 11.660156 -24.21875 10.425781 -23.453125 8.96875 -23.140625 C 8.96875 -22.515625 9.203125 -22.203125 9.671875 -22.203125 C 10.515625 -22.203125 11.367188 -22.53125 12.234375 -23.1875 C 12.890625 -22.675781 13.289062 -22.332031 13.4375 -22.15625 Z M 13.4375 -22.15625 "/></g></g></g><g fill="#000000" fill-opacity="1"><g transform="translate(241.405615, 228.199962)"><g><path d="M 3.640625 -15.5625 L 5.171875 -15.5625 C 5.992188 -15.5625 6.40625 -15.832031 6.40625 -16.375 C 6.40625 -16.4375 6.390625 -16.535156 6.359375 -16.671875 L 0.84375 -16.671875 C 0.476562 -17.816406 0.296875 -19.097656 0.296875 -20.515625 C 0.296875 -21.941406 0.398438 -23.097656 0.609375 -23.984375 C 1.546875 -24.566406 2.835938 -25.46875 4.484375 -26.6875 C 4.941406 -27.800781 5.539062 -29.570312 6.28125 -32 C 6.375 -32.332031 6.488281 -32.65625 6.625 -32.96875 C 7.90625 -33.289062 9.363281 -33.453125 11 -33.453125 C 12.644531 -33.453125 14.265625 -33.28125 15.859375 -32.9375 L 15.859375 -26.90625 L 20.109375 -26.90625 C 21.066406 -25.46875 21.546875 -23.769531 21.546875 -21.8125 C 21.546875 -20.925781 21.421875 -20.015625 21.171875 -19.078125 C 20.921875 -18.140625 20.566406 -17.34375 20.109375 -16.6875 L 16.59375 -16.6875 L 16.59375 -12.96875 C 16.59375 -10.875 17.472656 -9.828125 19.234375 -9.828125 L 20.28125 -9.828125 C 20.625 -8.578125 20.796875 -7.492188 20.796875 -6.578125 C 20.796875 -4.304688 20.085938 -2.566406 18.671875 -1.359375 C 17.253906 -0.160156 15.191406 0.4375 12.484375 0.4375 C 9.785156 0.4375 7.632812 -0.3125 6.03125 -1.8125 C 4.4375 -3.3125 3.640625 -5.519531 3.640625 -8.4375 Z M 3.640625 -15.5625 "/></g></g></g><g fill="#000000" fill-opacity="1"><g transform="translate(263.246313, 228.199962)"><g><path d="M 13.4375 -22.15625 L 13.4375 -12.40625 C 13.4375 -9.957031 14.03125 -8.363281 15.21875 -7.625 C 15.226562 -7.550781 15.234375 -7.398438 15.234375 -7.171875 L 15.234375 -6.71875 C 15.234375 -4.3125 14.578125 -2.5 13.265625 -1.28125 C 12.054688 -0.132812 10.4375 0.4375 8.40625 0.4375 C 6.375 0.4375 4.703125 -0.132812 3.390625 -1.28125 C 1.734375 -2.738281 0.90625 -4.875 0.90625 -7.6875 L 0.90625 -23.6875 C 1.207031 -23.894531 1.53125 -24.066406 1.875 -24.203125 C 2.21875 -24.335938 2.578125 -24.5 2.953125 -24.6875 C 2.242188 -25.050781 1.601562 -25.679688 1.03125 -26.578125 C 0.457031 -27.472656 0.171875 -28.519531 0.171875 -29.71875 C 0.171875 -31.78125 0.851562 -33.46875 2.21875 -34.78125 C 3.582031 -36.09375 5.25 -36.75 7.21875 -36.75 C 9.195312 -36.75 10.851562 -36.082031 12.1875 -34.75 C 13.53125 -33.414062 14.203125 -31.738281 14.203125 -29.71875 C 14.203125 -28.09375 13.691406 -26.664062 12.671875 -25.4375 C 11.660156 -24.21875 10.425781 -23.453125 8.96875 -23.140625 C 8.96875 -22.515625 9.203125 -22.203125 9.671875 -22.203125 C 10.515625 -22.203125 11.367188 -22.53125 12.234375 -23.1875 C 12.890625 -22.675781 13.289062 -22.332031 13.4375 -22.15625 Z M 13.4375 -22.15625 "/></g></g></g><g fill="#000000" fill-opacity="1"><g transform="translate(84.580122, 230.812589)"><g><path d="M 78.671875 -27.25 C 78.671875 -31.09375 77.976562 -34.347656 76.59375 -37.015625 C 75.363281 -39.242188 74.054688 -40.359375 72.671875 -40.359375 C 71.765625 -40.359375 71.171875 -39.957031 70.890625 -39.15625 C 73.554688 -36.113281 74.890625 -32.210938 74.890625 -27.453125 C 74.890625 -19.179688 71.628906 -12.488281 65.109375 -7.375 C 58.597656 -2.269531 49.828125 0.28125 38.796875 0.28125 C 29.046875 0.28125 20.507812 -2.519531 13.1875 -8.125 C 5.34375 -14.070312 1.421875 -21.539062 1.421875 -30.53125 C 1.421875 -36.613281 3.585938 -41.296875 7.921875 -44.578125 C 11.429688 -47.191406 15.851562 -48.546875 21.1875 -48.640625 C 21.226562 -42.648438 23.019531 -37.832031 26.5625 -34.1875 C 30.101562 -30.550781 34.867188 -28.734375 40.859375 -28.734375 C 43.765625 -28.734375 45.21875 -29.546875 45.21875 -31.171875 C 45.21875 -31.546875 45.144531 -31.945312 45 -32.375 C 43.90625 -32.09375 42.691406 -31.953125 41.359375 -31.953125 C 36.179688 -31.953125 32.128906 -33.425781 29.203125 -36.375 C 26.273438 -39.320312 24.8125 -43.207031 24.8125 -48.03125 C 24.8125 -52.851562 26.359375 -56.710938 29.453125 -59.609375 C 32.546875 -62.515625 36.347656 -63.96875 40.859375 -63.96875 C 42.484375 -63.96875 43.601562 -63.898438 44.21875 -63.765625 C 44.363281 -64.046875 44.4375 -64.351562 44.4375 -64.6875 C 44.4375 -66.351562 42.851562 -67.1875 39.6875 -67.1875 C 36.53125 -67.1875 33.320312 -66.1875 30.0625 -64.1875 C 26.800781 -62.1875 24.269531 -59.40625 22.46875 -55.84375 C 16.664062 -56.320312 12.050781 -58.84375 8.625 -63.40625 C 5.632812 -67.394531 4.140625 -71.722656 4.140625 -76.390625 C 7.328125 -82.140625 11.390625 -86.773438 16.328125 -90.296875 C 22.847656 -94.859375 30.363281 -97.140625 38.875 -97.140625 C 49.664062 -97.140625 58.148438 -94.472656 64.328125 -89.140625 C 70.515625 -83.816406 73.609375 -76.757812 73.609375 -67.96875 C 73.609375 -65.5 73.367188 -63.570312 72.890625 -62.1875 C 73.265625 -61.90625 73.820312 -61.765625 74.5625 -61.765625 C 75.300781 -61.765625 75.953125 -62.378906 76.515625 -63.609375 C 77.085938 -64.847656 77.375 -66.5625 77.375 -68.75 C 77.375 -76.40625 75.09375 -82.847656 70.53125 -88.078125 C 70.820312 -90.742188 72.25 -93.023438 74.8125 -94.921875 L 111.75 -94.921875 C 113.375 -92.398438 114.503906 -90.210938 115.140625 -88.359375 C 115.785156 -86.503906 116.109375 -84.316406 116.109375 -81.796875 C 116.109375 -77.285156 114.65625 -73.007812 111.75 -68.96875 L 108.1875 -68.96875 L 108.1875 -27.453125 C 108.1875 -24.316406 108.492188 -21.710938 109.109375 -19.640625 C 109.734375 -17.578125 110.78125 -15.664062 112.25 -13.90625 C 111.394531 -9.382812 109.28125 -5.835938 105.90625 -3.265625 C 102.53125 -0.703125 98.5 0.578125 93.8125 0.578125 C 89.132812 0.578125 85.023438 -0.457031 81.484375 -2.53125 C 77.941406 -4.601562 75.550781 -7.726562 74.3125 -11.90625 C 77.21875 -16.613281 78.671875 -21.726562 78.671875 -27.25 Z M 78.671875 -27.25 "/></g></g></g><g fill="#ff91a4" fill-opacity="1"><g transform="translate(84.580122, 229.255895)"><g><path d="M 76.578125 -26.515625 C 76.578125 -30.265625 75.90625 -33.4375 74.5625 -36.03125 C 73.363281 -38.207031 72.09375 -39.296875 70.75 -39.296875 C 69.863281 -39.296875 69.285156 -38.898438 69.015625 -38.109375 C 71.609375 -35.148438 72.90625 -31.359375 72.90625 -26.734375 C 72.90625 -18.679688 69.734375 -12.164062 63.390625 -7.1875 C 57.046875 -2.207031 48.503906 0.28125 37.765625 0.28125 C 28.273438 0.28125 19.96875 -2.453125 12.84375 -7.921875 C 5.207031 -13.703125 1.390625 -20.96875 1.390625 -29.71875 C 1.390625 -35.644531 3.492188 -40.203125 7.703125 -43.390625 C 11.128906 -45.929688 15.4375 -47.25 20.625 -47.34375 C 20.664062 -41.519531 22.410156 -36.835938 25.859375 -33.296875 C 29.304688 -29.753906 33.945312 -27.984375 39.78125 -27.984375 C 42.601562 -27.984375 44.015625 -28.769531 44.015625 -30.34375 C 44.015625 -30.707031 43.945312 -31.097656 43.8125 -31.515625 C 42.75 -31.242188 41.566406 -31.109375 40.265625 -31.109375 C 35.222656 -31.109375 31.273438 -32.539062 28.421875 -35.40625 C 25.578125 -38.28125 24.15625 -42.066406 24.15625 -46.765625 C 24.15625 -51.460938 25.660156 -55.222656 28.671875 -58.046875 C 31.679688 -60.867188 35.382812 -62.28125 39.78125 -62.28125 C 41.351562 -62.28125 42.441406 -62.207031 43.046875 -62.0625 C 43.179688 -62.34375 43.25 -62.644531 43.25 -62.96875 C 43.25 -64.59375 41.707031 -65.40625 38.625 -65.40625 C 35.550781 -65.40625 32.429688 -64.429688 29.265625 -62.484375 C 26.097656 -60.535156 23.632812 -57.828125 21.875 -54.359375 C 16.226562 -54.828125 11.738281 -57.28125 8.40625 -61.71875 C 5.488281 -65.601562 4.03125 -69.816406 4.03125 -74.359375 C 7.125 -79.953125 11.082031 -84.460938 15.90625 -87.890625 C 22.238281 -92.335938 29.550781 -94.5625 37.84375 -94.5625 C 48.34375 -94.5625 56.601562 -91.96875 62.625 -86.78125 C 68.644531 -81.601562 71.65625 -74.734375 71.65625 -66.171875 C 71.65625 -63.753906 71.421875 -61.878906 70.953125 -60.546875 C 71.328125 -60.265625 71.867188 -60.125 72.578125 -60.125 C 73.296875 -60.125 73.929688 -60.722656 74.484375 -61.921875 C 75.046875 -63.128906 75.328125 -64.796875 75.328125 -66.921875 C 75.328125 -74.378906 73.101562 -80.65625 68.65625 -85.75 C 68.9375 -88.332031 70.328125 -90.550781 72.828125 -92.40625 L 108.796875 -92.40625 C 110.367188 -89.957031 111.46875 -87.828125 112.09375 -86.015625 C 112.71875 -84.210938 113.03125 -82.085938 113.03125 -79.640625 C 113.03125 -75.234375 111.617188 -71.066406 108.796875 -67.140625 L 105.328125 -67.140625 L 105.328125 -26.734375 C 105.328125 -23.671875 105.625 -21.132812 106.21875 -19.125 C 106.820312 -17.113281 107.84375 -15.25 109.28125 -13.53125 C 108.445312 -9.132812 106.382812 -5.6875 103.09375 -3.1875 C 99.8125 -0.6875 95.890625 0.5625 91.328125 0.5625 C 86.773438 0.5625 82.773438 -0.441406 79.328125 -2.453125 C 75.878906 -4.472656 73.550781 -7.519531 72.34375 -11.59375 C 75.164062 -16.175781 76.578125 -21.148438 76.578125 -26.515625 Z M 76.578125 -26.515625 "/></g></g></g><g fill="#ff91a4" fill-opacity="1"><g transform="translate(198.118189, 226.017813)"><g><path d="M 14.25 -16.78125 C 14.09375 -16.9375 13.90625 -17.015625 13.6875 -17.015625 C 13.332031 -17.015625 13.09375 -16.765625 12.96875 -16.265625 C 12.84375 -15.773438 12.78125 -14.769531 12.78125 -13.25 L 12.78125 -10.84375 C 12.78125 -10.414062 12.832031 -10.113281 12.9375 -9.9375 C 13.050781 -9.769531 13.234375 -9.6875 13.484375 -9.6875 C 13.742188 -9.6875 13.925781 -9.738281 14.03125 -9.84375 L 14.03125 -13.015625 C 14.03125 -14.566406 14.101562 -15.820312 14.25 -16.78125 Z M 12.546875 -30.78125 C 13.378906 -31.757812 14.300781 -32.492188 15.3125 -32.984375 C 16.320312 -33.484375 17.609375 -33.734375 19.171875 -33.734375 C 21.066406 -33.734375 22.609375 -33.207031 23.796875 -32.15625 C 25.003906 -31.007812 25.609375 -29.476562 25.609375 -27.5625 L 25.609375 -11.9375 C 25.609375 -9.582031 26.175781 -8.050781 27.3125 -7.34375 C 27.332031 -7.257812 27.34375 -7.109375 27.34375 -6.890625 L 27.34375 -6.46875 C 27.34375 -4.21875 26.664062 -2.472656 25.3125 -1.234375 C 24.113281 -0.128906 22.628906 0.421875 20.859375 0.421875 C 19.628906 0.421875 18.5625 0.160156 17.65625 -0.359375 C 16.601562 -0.953125 15.863281 -1.769531 15.4375 -2.8125 C 14.894531 -2.8125 14.625 -2.550781 14.625 -2.03125 C 14.625 -1.800781 14.710938 -1.53125 14.890625 -1.21875 C 15.078125 -0.90625 15.332031 -0.632812 15.65625 -0.40625 C 14.71875 0.144531 13.507812 0.421875 12.03125 0.421875 C 10.019531 0.421875 8.140625 -0.0351562 6.390625 -0.953125 C 4.648438 -1.878906 3.269531 -3.273438 2.25 -5.140625 C 1.0625 -7.265625 0.46875 -9.84375 0.46875 -12.875 C 0.46875 -16.914062 1.597656 -20.085938 3.859375 -22.390625 C 6.128906 -24.703125 9.023438 -25.859375 12.546875 -25.859375 C 14.628906 -25.859375 16.445312 -25.460938 18 -24.671875 C 18.164062 -24.835938 18.25 -25.019531 18.25 -25.21875 C 18.25 -25.6875 17.6875 -26.085938 16.5625 -26.421875 C 15.445312 -26.753906 14.320312 -26.921875 13.1875 -26.921875 C 13.1875 -28.523438 12.972656 -29.8125 12.546875 -30.78125 Z M 12.546875 -30.78125 "/></g></g></g><g fill="#ff91a4" fill-opacity="1"><g transform="translate(225.272427, 226.017813)"><g><path d="M 12.921875 -21.3125 L 12.921875 -11.9375 C 12.921875 -9.582031 13.488281 -8.050781 14.625 -7.34375 C 14.644531 -7.257812 14.65625 -7.109375 14.65625 -6.890625 L 14.65625 -6.46875 C 14.65625 -4.144531 14.023438 -2.398438 12.765625 -1.234375 C 11.597656 -0.128906 10.035156 0.421875 8.078125 0.421875 C 6.128906 0.421875 4.523438 -0.128906 3.265625 -1.234375 C 1.671875 -2.640625 0.875 -4.691406 0.875 -7.390625 L 0.875 -22.78125 C 1.15625 -22.976562 1.460938 -23.140625 1.796875 -23.265625 C 2.128906 -23.398438 2.476562 -23.5625 2.84375 -23.75 C 2.164062 -24.09375 1.550781 -24.691406 1 -25.546875 C 0.445312 -26.410156 0.171875 -27.421875 0.171875 -28.578125 C 0.171875 -30.566406 0.820312 -32.191406 2.125 -33.453125 C 3.4375 -34.710938 5.039062 -35.34375 6.9375 -35.34375 C 8.84375 -35.34375 10.4375 -34.695312 11.71875 -33.40625 C 13.007812 -32.125 13.65625 -30.515625 13.65625 -28.578125 C 13.65625 -27.015625 13.164062 -25.644531 12.1875 -24.46875 C 11.207031 -23.289062 10.019531 -22.550781 8.625 -22.25 C 8.625 -21.65625 8.847656 -21.359375 9.296875 -21.359375 C 10.109375 -21.359375 10.929688 -21.671875 11.765625 -22.296875 C 12.398438 -21.804688 12.785156 -21.476562 12.921875 -21.3125 Z M 12.921875 -21.3125 "/></g></g></g><g fill="#ff91a4" fill-opacity="1"><g transform="translate(239.737326, 226.017813)"><g><path d="M 3.5 -14.96875 L 4.96875 -14.96875 C 5.757812 -14.96875 6.15625 -15.226562 6.15625 -15.75 C 6.15625 -15.8125 6.140625 -15.90625 6.109375 -16.03125 L 0.8125 -16.03125 C 0.457031 -17.132812 0.28125 -18.367188 0.28125 -19.734375 C 0.28125 -21.097656 0.382812 -22.207031 0.59375 -23.0625 C 1.488281 -23.625 2.726562 -24.488281 4.3125 -25.65625 C 4.75 -26.726562 5.320312 -28.4375 6.03125 -30.78125 C 6.125 -31.09375 6.238281 -31.398438 6.375 -31.703125 C 7.601562 -32.015625 9.003906 -32.171875 10.578125 -32.171875 C 12.160156 -32.171875 13.71875 -32.003906 15.25 -31.671875 L 15.25 -25.875 L 19.34375 -25.875 C 20.257812 -24.488281 20.71875 -22.851562 20.71875 -20.96875 C 20.71875 -20.125 20.597656 -19.25 20.359375 -18.34375 C 20.117188 -17.445312 19.78125 -16.679688 19.34375 -16.046875 L 15.953125 -16.046875 L 15.953125 -12.46875 C 15.953125 -10.457031 16.796875 -9.453125 18.484375 -9.453125 L 19.5 -9.453125 C 19.832031 -8.242188 20 -7.203125 20 -6.328125 C 20 -4.140625 19.316406 -2.46875 17.953125 -1.3125 C 16.585938 -0.15625 14.609375 0.421875 12.015625 0.421875 C 9.421875 0.421875 7.351562 -0.296875 5.8125 -1.734375 C 4.269531 -3.179688 3.5 -5.3125 3.5 -8.125 Z M 3.5 -14.96875 "/></g></g></g><g fill="#ff91a4" fill-opacity="1"><g transform="translate(260.736288, 226.017813)"><g><path d="M 12.921875 -21.3125 L 12.921875 -11.9375 C 12.921875 -9.582031 13.488281 -8.050781 14.625 -7.34375 C 14.644531 -7.257812 14.65625 -7.109375 14.65625 -6.890625 L 14.65625 -6.46875 C 14.65625 -4.144531 14.023438 -2.398438 12.765625 -1.234375 C 11.597656 -0.128906 10.035156 0.421875 8.078125 0.421875 C 6.128906 0.421875 4.523438 -0.128906 3.265625 -1.234375 C 1.671875 -2.640625 0.875 -4.691406 0.875 -7.390625 L 0.875 -22.78125 C 1.15625 -22.976562 1.460938 -23.140625 1.796875 -23.265625 C 2.128906 -23.398438 2.476562 -23.5625 2.84375 -23.75 C 2.164062 -24.09375 1.550781 -24.691406 1 -25.546875 C 0.445312 -26.410156 0.171875 -27.421875 0.171875 -28.578125 C 0.171875 -30.566406 0.820312 -32.191406 2.125 -33.453125 C 3.4375 -34.710938 5.039062 -35.34375 6.9375 -35.34375 C 8.84375 -35.34375 10.4375 -34.695312 11.71875 -33.40625 C 13.007812 -32.125 13.65625 -30.515625 13.65625 -28.578125 C 13.65625 -27.015625 13.164062 -25.644531 12.1875 -24.46875 C 11.207031 -23.289062 10.019531 -22.550781 8.625 -22.25 C 8.625 -21.65625 8.847656 -21.359375 9.296875 -21.359375 C 10.109375 -21.359375 10.929688 -21.671875 11.765625 -22.296875 C 12.398438 -21.804688 12.785156 -21.476562 12.921875 -21.3125 Z M 12.921875 -21.3125 "/></g></g></g></svg>