<svg xmlns="http://www.w3.org/2000/svg" xmlns:xlink="http://www.w3.org/1999/xlink" width="500" zoomAndPan="magnify" viewBox="0 0 375 149.999998" height="200" preserveAspectRatio="xMidYMid meet" version="1.0"><path fill="#000000" d="M 140.824219 78.914062 C 140.824219 77.03125 140.488281 75.441406 139.816406 74.136719 C 139.210938 73.046875 138.570312 72.5 137.898438 72.5 C 137.457031 72.5 137.167969 72.699219 137.023438 73.09375 C 138.328125 74.578125 138.980469 76.484375 138.980469 78.808594 C 138.980469 82.851562 137.386719 86.125 134.203125 88.621094 C 131.019531 91.121094 126.730469 92.371094 121.339844 92.371094 C 116.578125 92.371094 112.410156 91 108.828125 88.253906 C 104.992188 85.347656 103.074219 81.703125 103.074219 77.3125 C 103.074219 74.335938 104.128906 72.046875 106.246094 70.441406 C 107.964844 69.167969 110.128906 68.503906 112.734375 68.457031 C 112.757812 71.386719 113.632812 73.734375 115.363281 75.515625 C 117.09375 77.292969 119.425781 78.179688 122.351562 78.179688 C 123.769531 78.179688 124.480469 77.785156 124.480469 76.996094 C 124.480469 76.8125 124.445312 76.617188 124.375 76.402344 C 123.84375 76.542969 123.25 76.609375 122.597656 76.609375 C 120.066406 76.609375 118.082031 75.890625 116.652344 74.453125 C 115.222656 73.015625 114.511719 71.113281 114.511719 68.75 C 114.511719 66.394531 115.265625 64.503906 116.777344 63.085938 C 118.289062 61.667969 120.144531 60.960938 122.351562 60.960938 C 123.140625 60.960938 123.6875 60.996094 123.988281 61.0625 C 124.058594 60.925781 124.09375 60.773438 124.09375 60.613281 C 124.09375 59.796875 123.320312 59.390625 121.777344 59.390625 C 120.230469 59.390625 118.660156 59.878906 117.066406 60.855469 C 115.476562 61.835938 114.238281 63.195312 113.363281 64.9375 C 110.523438 64.707031 108.265625 63.476562 106.59375 61.242188 C 105.128906 59.292969 104.402344 57.175781 104.402344 54.894531 C 105.957031 52.085938 107.941406 49.820312 110.363281 48.101562 C 113.546875 45.871094 117.21875 44.753906 121.375 44.753906 C 126.648438 44.753906 130.796875 46.058594 133.816406 48.660156 C 136.839844 51.261719 138.351562 54.714844 138.351562 59.011719 C 138.351562 60.21875 138.234375 61.160156 138.003906 61.835938 C 138.191406 61.972656 138.464844 62.042969 138.824219 62.042969 C 139.183594 62.042969 139.503906 61.742188 139.78125 61.136719 C 140.0625 60.53125 140.203125 59.695312 140.203125 58.628906 C 140.203125 54.886719 139.085938 51.734375 136.855469 49.175781 C 136.992188 47.878906 137.6875 46.765625 138.941406 45.835938 L 157 45.835938 C 157.789062 47.066406 158.339844 48.136719 158.652344 49.042969 C 158.964844 49.949219 159.125 51.019531 159.125 52.25 C 159.125 54.457031 158.417969 56.550781 157 58.523438 L 155.257812 58.523438 L 155.257812 78.808594 C 155.257812 80.347656 155.410156 81.621094 155.710938 82.632812 C 156.011719 83.636719 156.523438 84.570312 157.242188 85.429688 C 156.824219 87.636719 155.789062 89.371094 154.140625 90.628906 C 152.492188 91.886719 150.519531 92.511719 148.230469 92.511719 C 145.945312 92.511719 143.933594 92.003906 142.203125 90.992188 C 140.472656 89.980469 139.304688 88.453125 138.699219 86.410156 C 140.117188 84.109375 140.824219 81.609375 140.824219 78.914062 Z M 140.824219 78.914062 " fill-opacity="1" fill-rule="nonzero"/><path fill="#000000" d="M 177.140625 67.515625 C 176.910156 67.285156 176.632812 67.167969 176.304688 67.167969 C 175.796875 67.167969 175.449219 67.535156 175.261719 68.269531 C 175.078125 69 174.988281 70.480469 174.988281 72.707031 L 174.988281 76.261719 C 174.988281 76.890625 175.066406 77.332031 175.222656 77.585938 C 175.386719 77.84375 175.652344 77.972656 176.023438 77.972656 C 176.398438 77.972656 176.667969 77.890625 176.832031 77.726562 L 176.832031 73.054688 C 176.832031 70.78125 176.933594 68.933594 177.140625 67.515625 Z M 174.632812 46.910156 C 175.863281 45.472656 177.226562 44.390625 178.710938 43.660156 C 180.195312 42.925781 182.089844 42.554688 184.394531 42.554688 C 187.179688 42.554688 189.449219 43.335938 191.191406 44.894531 C 192.976562 46.566406 193.871094 48.820312 193.871094 51.660156 L 193.871094 74.660156 C 193.871094 78.125 194.710938 80.378906 196.382812 81.425781 C 196.40625 81.542969 196.421875 81.761719 196.421875 82.082031 L 196.421875 82.710938 C 196.421875 86.011719 195.421875 88.578125 193.421875 90.414062 C 191.660156 92.042969 189.472656 92.859375 186.867188 92.859375 C 185.054688 92.859375 183.484375 92.472656 182.164062 91.703125 C 180.609375 90.828125 179.515625 89.617188 178.890625 88.082031 C 178.097656 88.082031 177.703125 88.464844 177.703125 89.230469 C 177.703125 89.582031 177.839844 89.984375 178.105469 90.4375 C 178.371094 90.886719 178.734375 91.289062 179.199219 91.636719 C 177.828125 92.453125 176.050781 92.859375 173.867188 92.859375 C 170.914062 92.859375 168.15625 92.179688 165.589844 90.824219 C 163.019531 89.460938 160.980469 87.40625 159.46875 84.667969 C 157.726562 81.527344 156.855469 77.726562 156.855469 73.269531 C 156.855469 67.320312 158.523438 62.648438 161.855469 59.257812 C 165.191406 55.859375 169.449219 54.160156 174.632812 54.160156 C 177.703125 54.160156 180.375 54.746094 182.652344 55.910156 C 182.90625 55.652344 183.039062 55.386719 183.039062 55.109375 C 183.039062 54.410156 182.210938 53.816406 180.554688 53.332031 C 178.90625 52.84375 177.246094 52.597656 175.578125 52.597656 C 175.578125 50.230469 175.261719 48.332031 174.632812 46.910156 Z M 174.632812 46.910156 " fill-opacity="1" fill-rule="nonzero"/><path fill="#000000" d="M 215.171875 60.855469 L 215.171875 74.660156 C 215.171875 78.125 216.007812 80.378906 217.683594 81.425781 C 217.703125 81.542969 217.714844 81.761719 217.714844 82.082031 L 217.714844 82.710938 C 217.714844 86.128906 216.785156 88.695312 214.929688 90.414062 C 213.210938 92.042969 210.914062 92.859375 208.039062 92.859375 C 205.171875 92.859375 202.808594 92.042969 200.953125 90.414062 C 198.601562 88.347656 197.425781 85.328125 197.425781 81.355469 L 197.425781 58.695312 C 197.847656 58.394531 198.300781 58.152344 198.789062 57.96875 C 199.277344 57.78125 199.789062 57.546875 200.324219 57.265625 C 199.320312 56.757812 198.414062 55.871094 197.597656 54.605469 C 196.785156 53.335938 196.382812 51.855469 196.382812 50.15625 C 196.382812 47.226562 197.347656 44.835938 199.273438 42.976562 C 201.199219 41.117188 203.566406 40.1875 206.367188 40.1875 C 209.171875 40.1875 211.519531 41.132812 213.410156 43.03125 C 215.304688 44.921875 216.253906 47.296875 216.253906 50.15625 C 216.253906 52.457031 215.53125 54.472656 214.089844 56.207031 C 212.648438 57.933594 210.894531 59.019531 208.824219 59.464844 C 208.824219 60.347656 209.164062 60.789062 209.839844 60.789062 C 211.023438 60.789062 212.234375 60.324219 213.460938 59.390625 C 214.390625 60.113281 214.960938 60.601562 215.171875 60.855469 Z M 215.171875 60.855469 " fill-opacity="1" fill-rule="nonzero"/><path fill="#000000" d="M 222.597656 70.195312 L 224.753906 70.195312 C 225.917969 70.195312 226.5 69.816406 226.5 69.046875 C 226.5 68.957031 226.476562 68.816406 226.425781 68.632812 L 218.621094 68.632812 C 218.105469 67.003906 217.851562 65.1875 217.851562 63.175781 C 217.851562 61.164062 218.003906 59.535156 218.308594 58.28125 C 219.632812 57.441406 221.457031 56.160156 223.78125 54.441406 C 224.429688 52.863281 225.273438 50.351562 226.324219 46.910156 C 226.460938 46.449219 226.621094 45.996094 226.8125 45.554688 C 228.621094 45.09375 230.6875 44.859375 233.011719 44.859375 C 235.335938 44.859375 237.625 45.105469 239.882812 45.59375 L 239.882812 54.132812 L 245.914062 54.132812 C 247.261719 56.175781 247.933594 58.582031 247.933594 61.34375 C 247.933594 62.601562 247.757812 63.890625 247.410156 65.21875 C 247.0625 66.542969 246.5625 67.667969 245.914062 68.597656 L 240.929688 68.597656 L 240.929688 73.863281 C 240.929688 76.835938 242.171875 78.320312 244.660156 78.320312 L 246.15625 78.320312 C 246.644531 80.089844 246.890625 81.621094 246.890625 82.921875 C 246.890625 86.128906 245.882812 88.589844 243.875 90.296875 C 241.863281 92.003906 238.945312 92.859375 235.121094 92.859375 C 231.300781 92.859375 228.257812 91.796875 225.988281 89.667969 C 223.726562 87.539062 222.597656 84.410156 222.597656 80.277344 Z M 222.597656 70.195312 " fill-opacity="1" fill-rule="nonzero"/><path fill="#000000" d="M 267.386719 60.855469 L 267.386719 74.660156 C 267.386719 78.125 268.222656 80.378906 269.894531 81.425781 C 269.914062 81.542969 269.925781 81.761719 269.925781 82.082031 L 269.925781 82.710938 C 269.925781 86.128906 268.996094 88.695312 267.140625 90.414062 C 265.421875 92.042969 263.128906 92.859375 260.253906 92.859375 C 257.382812 92.859375 255.019531 92.042969 253.164062 90.414062 C 250.8125 88.347656 249.640625 85.328125 249.640625 81.355469 L 249.640625 58.695312 C 250.058594 58.394531 250.515625 58.152344 251.003906 57.96875 C 251.492188 57.78125 252.003906 57.546875 252.535156 57.265625 C 251.53125 56.757812 250.625 55.871094 249.8125 54.605469 C 249 53.335938 248.597656 51.855469 248.597656 50.15625 C 248.597656 47.226562 249.558594 44.835938 251.484375 42.976562 C 253.414062 41.117188 255.78125 40.1875 258.578125 40.1875 C 261.382812 40.1875 263.730469 41.132812 265.625 43.03125 C 267.519531 44.921875 268.46875 47.296875 268.46875 50.15625 C 268.46875 52.457031 267.746094 54.472656 266.304688 56.207031 C 264.863281 57.933594 263.105469 59.019531 261.039062 59.464844 C 261.039062 60.347656 261.375 60.789062 262.054688 60.789062 C 263.238281 60.789062 264.445312 60.324219 265.675781 59.390625 C 266.601562 60.113281 267.171875 60.601562 267.386719 60.855469 Z M 267.386719 60.855469 " fill-opacity="1" fill-rule="nonzero"/><path fill="#ff91a4" d="M 142.230469 76.597656 C 142.230469 74.769531 141.90625 73.21875 141.253906 71.949219 C 140.660156 70.886719 140.039062 70.355469 139.386719 70.355469 C 138.957031 70.355469 138.671875 70.546875 138.535156 70.933594 C 139.804688 72.382812 140.4375 74.234375 140.4375 76.496094 C 140.4375 80.433594 138.886719 83.617188 135.789062 86.050781 C 132.6875 88.480469 128.511719 89.695312 123.265625 89.695312 C 118.628906 89.695312 114.570312 88.359375 111.089844 85.695312 C 107.355469 82.863281 105.488281 79.3125 105.488281 75.035156 C 105.488281 72.144531 106.519531 69.917969 108.578125 68.355469 C 110.25 67.113281 112.355469 66.464844 114.886719 66.414062 C 114.90625 69.269531 115.757812 71.5625 117.441406 73.296875 C 119.132812 75.023438 121.398438 75.886719 124.25 75.886719 C 125.628906 75.886719 126.324219 75.503906 126.324219 74.734375 C 126.324219 74.550781 126.289062 74.359375 126.21875 74.15625 C 125.699219 74.289062 125.125 74.355469 124.484375 74.355469 C 122.023438 74.355469 120.09375 73.65625 118.703125 72.25 C 117.308594 70.851562 116.613281 69 116.613281 66.703125 C 116.613281 64.410156 117.347656 62.570312 118.820312 61.195312 C 120.289062 59.8125 122.101562 59.121094 124.25 59.121094 C 125.019531 59.121094 125.554688 59.15625 125.847656 59.222656 C 125.910156 59.089844 125.945312 58.945312 125.945312 58.789062 C 125.945312 57.992188 125.191406 57.59375 123.6875 57.59375 C 122.183594 57.59375 120.660156 58.074219 119.109375 59.023438 C 117.558594 59.972656 116.355469 61.296875 115.496094 62.992188 C 112.734375 62.769531 110.539062 61.566406 108.910156 59.394531 C 107.488281 57.496094 106.777344 55.4375 106.777344 53.21875 C 108.292969 50.484375 110.226562 48.277344 112.578125 46.605469 C 115.675781 44.433594 119.25 43.34375 123.300781 43.34375 C 128.4375 43.34375 132.472656 44.613281 135.410156 47.144531 C 138.351562 49.675781 139.824219 53.039062 139.824219 57.222656 C 139.824219 58.398438 139.710938 59.316406 139.484375 59.972656 C 139.664062 60.105469 139.933594 60.171875 140.285156 60.171875 C 140.632812 60.171875 140.945312 59.878906 141.21875 59.289062 C 141.488281 58.703125 141.625 57.890625 141.625 56.847656 C 141.625 53.207031 140.539062 50.144531 138.367188 47.65625 C 138.503906 46.386719 139.183594 45.300781 140.402344 44.398438 L 157.976562 44.398438 C 158.746094 45.597656 159.285156 46.640625 159.59375 47.523438 C 159.898438 48.402344 160.050781 49.441406 160.050781 50.640625 C 160.050781 52.789062 159.359375 54.824219 157.976562 56.75 L 156.28125 56.75 L 156.28125 76.496094 C 156.28125 77.988281 156.425781 79.226562 156.71875 80.214844 C 157.015625 81.195312 157.511719 82.109375 158.214844 82.945312 C 157.808594 85.09375 156.800781 86.78125 155.191406 88.003906 C 153.585938 89.226562 151.671875 89.835938 149.445312 89.835938 C 147.21875 89.835938 145.261719 89.34375 143.570312 88.359375 C 141.886719 87.375 140.753906 85.882812 140.164062 83.894531 C 141.542969 81.652344 142.230469 79.222656 142.230469 76.597656 Z M 142.230469 76.597656 " fill-opacity="1" fill-rule="nonzero"/><path fill="#ff91a4" d="M 177.585938 65.503906 C 177.359375 65.277344 177.085938 65.164062 176.773438 65.164062 C 176.273438 65.164062 175.933594 65.523438 175.75 66.238281 C 175.574219 66.949219 175.484375 68.390625 175.484375 70.554688 L 175.484375 74.023438 C 175.484375 74.628906 175.5625 75.058594 175.722656 75.308594 C 175.878906 75.558594 176.136719 75.679688 176.5 75.679688 C 176.863281 75.679688 177.125 75.601562 177.285156 75.445312 L 177.285156 70.894531 C 177.285156 68.679688 177.382812 66.882812 177.585938 65.503906 Z M 175.144531 45.449219 C 176.34375 44.046875 177.664062 42.988281 179.113281 42.277344 C 180.558594 41.5625 182.402344 41.203125 184.644531 41.203125 C 187.359375 41.203125 189.566406 41.964844 191.257812 43.476562 C 193 45.109375 193.875 47.304688 193.875 50.0625 L 193.875 72.460938 C 193.875 75.832031 194.6875 78.027344 196.316406 79.042969 C 196.339844 79.15625 196.355469 79.371094 196.355469 79.6875 L 196.355469 80.292969 C 196.355469 83.507812 195.378906 86.011719 193.4375 87.796875 C 191.710938 89.378906 189.585938 90.167969 187.050781 90.167969 C 185.289062 90.167969 183.765625 89.792969 182.476562 89.050781 C 180.957031 88.191406 179.894531 87.015625 179.28125 85.523438 C 178.511719 85.523438 178.128906 85.898438 178.128906 86.640625 C 178.128906 86.984375 178.257812 87.375 178.519531 87.8125 C 178.78125 88.253906 179.136719 88.640625 179.585938 88.980469 C 178.253906 89.769531 176.523438 90.167969 174.394531 90.167969 C 171.523438 90.167969 168.839844 89.507812 166.335938 88.183594 C 163.835938 86.859375 161.851562 84.863281 160.382812 82.199219 C 158.6875 79.144531 157.84375 75.445312 157.84375 71.105469 C 157.84375 65.3125 159.464844 60.765625 162.707031 57.460938 C 165.957031 54.160156 170.101562 52.507812 175.144531 52.507812 C 178.128906 52.507812 180.730469 53.074219 182.949219 54.203125 C 183.195312 53.957031 183.320312 53.695312 183.320312 53.425781 C 183.320312 52.742188 182.515625 52.164062 180.914062 51.691406 C 179.308594 51.21875 177.691406 50.980469 176.0625 50.980469 C 176.0625 48.671875 175.753906 46.824219 175.144531 45.449219 Z M 175.144531 45.449219 " fill-opacity="1" fill-rule="nonzero"/><path fill="#ff91a4" d="M 214.609375 59.023438 L 214.609375 72.460938 C 214.609375 75.832031 215.417969 78.027344 217.042969 79.042969 C 217.070312 79.15625 217.082031 79.371094 217.082031 79.6875 L 217.082031 80.292969 C 217.082031 83.625 216.175781 86.125 214.363281 87.796875 C 212.691406 89.378906 210.453125 90.167969 207.660156 90.167969 C 204.871094 90.167969 202.570312 89.378906 200.757812 87.796875 C 198.476562 85.78125 197.335938 82.84375 197.335938 78.976562 L 197.335938 56.921875 C 197.742188 56.625 198.179688 56.386719 198.65625 56.210938 C 199.128906 56.027344 199.628906 55.800781 200.152344 55.527344 C 199.175781 55.03125 198.292969 54.164062 197.5 52.9375 C 196.707031 51.703125 196.316406 50.257812 196.316406 48.605469 C 196.316406 45.753906 197.25 43.425781 199.128906 41.621094 C 201.011719 39.808594 203.3125 38.902344 206.039062 38.902344 C 208.765625 38.902344 211.046875 39.824219 212.890625 41.671875 C 214.734375 43.511719 215.660156 45.824219 215.660156 48.605469 C 215.660156 50.847656 214.957031 52.808594 213.550781 54.492188 C 212.144531 56.175781 210.441406 57.230469 208.429688 57.660156 C 208.429688 58.519531 208.757812 58.949219 209.417969 58.949219 C 210.566406 58.949219 211.742188 58.5 212.941406 57.59375 C 213.84375 58.296875 214.402344 58.773438 214.609375 59.023438 Z M 214.609375 59.023438 " fill-opacity="1" fill-rule="nonzero"/><path fill="#ff91a4" d="M 221.828125 68.113281 L 223.933594 68.113281 C 225.0625 68.113281 225.628906 67.738281 225.628906 66.992188 C 225.628906 66.90625 225.605469 66.769531 225.5625 66.585938 L 217.964844 66.585938 C 217.464844 65.007812 217.214844 63.238281 217.214844 61.28125 C 217.214844 59.324219 217.363281 57.734375 217.660156 56.511719 C 218.949219 55.699219 220.722656 54.453125 222.984375 52.78125 C 223.617188 51.238281 224.441406 48.796875 225.457031 45.449219 C 225.59375 44.996094 225.753906 44.550781 225.933594 44.121094 C 227.699219 43.675781 229.714844 43.449219 231.976562 43.449219 C 234.238281 43.449219 236.464844 43.6875 238.664062 44.160156 L 238.664062 52.46875 L 244.53125 52.46875 C 245.84375 54.464844 246.5 56.808594 246.5 59.5 C 246.5 60.71875 246.328125 61.972656 245.988281 63.261719 C 245.648438 64.550781 245.160156 65.648438 244.53125 66.554688 L 239.679688 66.554688 L 239.679688 71.679688 C 239.679688 74.574219 240.886719 76.019531 243.308594 76.019531 L 244.765625 76.019531 C 245.242188 77.738281 245.476562 79.234375 245.476562 80.503906 C 245.476562 83.625 244.5 86.015625 242.542969 87.679688 C 240.589844 89.339844 237.75 90.167969 234.027344 90.167969 C 230.304688 90.167969 227.339844 89.132812 225.132812 87.0625 C 222.929688 84.996094 221.828125 81.949219 221.828125 77.925781 Z M 221.828125 68.113281 " fill-opacity="1" fill-rule="nonzero"/><path fill="#ff91a4" d="M 265.433594 59.023438 L 265.433594 72.460938 C 265.433594 75.832031 266.246094 78.027344 267.871094 79.042969 C 267.894531 79.15625 267.90625 79.371094 267.90625 79.6875 L 267.90625 80.292969 C 267.90625 83.625 267 86.125 265.1875 87.796875 C 263.515625 89.378906 261.28125 90.167969 258.488281 90.167969 C 255.695312 90.167969 253.394531 89.378906 251.582031 87.796875 C 249.304688 85.78125 248.164062 82.84375 248.164062 78.976562 L 248.164062 56.921875 C 248.566406 56.625 249.007812 56.386719 249.480469 56.210938 C 249.953125 56.027344 250.453125 55.800781 250.976562 55.527344 C 250.003906 55.03125 249.121094 54.164062 248.324219 52.9375 C 247.535156 51.703125 247.140625 50.257812 247.140625 48.605469 C 247.140625 45.753906 248.078125 43.425781 249.953125 41.621094 C 251.835938 39.808594 254.140625 38.902344 256.863281 38.902344 C 259.589844 38.902344 261.871094 39.824219 263.714844 41.671875 C 265.5625 43.511719 266.484375 45.824219 266.484375 48.605469 C 266.484375 50.847656 265.78125 52.808594 264.375 54.492188 C 262.972656 56.175781 261.265625 57.230469 259.257812 57.660156 C 259.257812 58.519531 259.585938 58.949219 260.242188 58.949219 C 261.390625 58.949219 262.566406 58.5 263.765625 57.59375 C 264.671875 58.296875 265.226562 58.773438 265.433594 59.023438 Z M 265.433594 59.023438 " fill-opacity="1" fill-rule="nonzero"/></svg>