<svg xmlns="http://www.w3.org/2000/svg" xmlns:xlink="http://www.w3.org/1999/xlink" width="500" zoomAndPan="magnify" viewBox="0 0 375 374.999991" height="500" preserveAspectRatio="xMidYMid meet" version="1.0"><defs><g/></defs><rect x="-37.5" width="450" fill="#ffffff" y="-37.499999" height="449.999989" fill-opacity="1"/><rect x="-37.5" width="450" fill="#ffffff" y="-37.499999" height="449.999989" fill-opacity="1"/><g fill="#000000" fill-opacity="1"><g transform="translate(217.148251, 269.839435)"><g><path d="M 28.359375 -33.390625 C 28.035156 -33.703125 27.65625 -33.859375 27.21875 -33.859375 C 26.53125 -33.859375 26.0625 -33.363281 25.8125 -32.375 C 25.5625 -31.382812 25.4375 -29.382812 25.4375 -26.375 L 25.4375 -21.5625 C 25.4375 -20.71875 25.546875 -20.125 25.765625 -19.78125 C 25.984375 -19.4375 26.34375 -19.265625 26.84375 -19.265625 C 27.34375 -19.265625 27.703125 -19.375 27.921875 -19.59375 L 27.921875 -25.90625 C 27.921875 -28.976562 28.066406 -31.472656 28.359375 -33.390625 Z M 24.96875 -61.21875 C 26.625 -63.164062 28.457031 -64.632812 30.46875 -65.625 C 32.476562 -66.613281 35.035156 -67.109375 38.140625 -67.109375 C 41.910156 -67.109375 44.972656 -66.054688 47.328125 -63.953125 C 49.742188 -61.691406 50.953125 -58.644531 50.953125 -54.8125 L 50.953125 -23.734375 C 50.953125 -19.054688 52.082031 -16.007812 54.34375 -14.59375 C 54.375 -14.4375 54.390625 -14.140625 54.390625 -13.703125 L 54.390625 -12.859375 C 54.390625 -8.398438 53.039062 -4.929688 50.34375 -2.453125 C 47.957031 -0.253906 45.003906 0.84375 41.484375 0.84375 C 39.035156 0.84375 36.921875 0.328125 35.140625 -0.703125 C 33.035156 -1.898438 31.554688 -3.535156 30.703125 -5.609375 C 29.640625 -5.609375 29.109375 -5.085938 29.109375 -4.046875 C 29.109375 -3.578125 29.285156 -3.035156 29.640625 -2.421875 C 30.003906 -1.804688 30.5 -1.265625 31.125 -0.796875 C 29.28125 0.296875 26.878906 0.84375 23.921875 0.84375 C 19.929688 0.84375 16.203125 -0.0703125 12.734375 -1.90625 C 9.265625 -3.738281 6.507812 -6.507812 4.46875 -10.21875 C 2.113281 -14.457031 0.9375 -19.59375 0.9375 -25.625 C 0.9375 -33.65625 3.1875 -39.960938 7.6875 -44.546875 C 12.195312 -49.128906 17.957031 -51.421875 24.96875 -51.421875 C 29.101562 -51.421875 32.710938 -50.640625 35.796875 -49.078125 C 36.140625 -49.421875 36.3125 -49.78125 36.3125 -50.15625 C 36.3125 -51.101562 35.195312 -51.90625 32.96875 -52.5625 C 30.738281 -53.21875 28.492188 -53.546875 26.234375 -53.546875 C 26.234375 -56.753906 25.8125 -59.3125 24.96875 -61.21875 Z M 24.96875 -61.21875 "/></g></g></g><g fill="#000000" fill-opacity="1"><g transform="translate(271.164088, 269.839435)"><g><path d="M 25.71875 -42.390625 L 25.71875 -23.734375 C 25.71875 -19.054688 26.847656 -16.007812 29.109375 -14.59375 C 29.140625 -14.4375 29.15625 -14.140625 29.15625 -13.703125 L 29.15625 -12.859375 C 29.15625 -8.242188 27.898438 -4.773438 25.390625 -2.453125 C 23.066406 -0.253906 19.960938 0.84375 16.078125 0.84375 C 12.203125 0.84375 9.007812 -0.253906 6.5 -2.453125 C 3.332031 -5.242188 1.75 -9.320312 1.75 -14.6875 L 1.75 -45.3125 C 2.3125 -45.71875 2.921875 -46.046875 3.578125 -46.296875 C 4.234375 -46.546875 4.925781 -46.859375 5.65625 -47.234375 C 4.300781 -47.929688 3.070312 -49.132812 1.96875 -50.84375 C 0.875 -52.550781 0.328125 -54.550781 0.328125 -56.84375 C 0.328125 -60.800781 1.628906 -64.035156 4.234375 -66.546875 C 6.835938 -69.054688 10.03125 -70.3125 13.8125 -70.3125 C 17.601562 -70.3125 20.773438 -69.03125 23.328125 -66.46875 C 25.890625 -63.914062 27.171875 -60.707031 27.171875 -56.84375 C 27.171875 -53.738281 26.195312 -51.015625 24.25 -48.671875 C 22.300781 -46.335938 19.929688 -44.867188 17.140625 -44.265625 C 17.140625 -43.078125 17.597656 -42.484375 18.515625 -42.484375 C 20.109375 -42.484375 21.738281 -43.109375 23.40625 -44.359375 C 24.664062 -43.390625 25.4375 -42.734375 25.71875 -42.390625 Z M 25.71875 -42.390625 "/></g></g></g><g fill="#000000" fill-opacity="1"><g transform="translate(299.938005, 269.839435)"><g><path d="M 6.96875 -29.765625 L 9.890625 -29.765625 C 11.460938 -29.765625 12.25 -30.28125 12.25 -31.3125 C 12.25 -31.4375 12.21875 -31.628906 12.15625 -31.890625 L 1.59375 -31.890625 C 0.90625 -34.085938 0.5625 -36.539062 0.5625 -39.25 C 0.5625 -41.96875 0.765625 -44.175781 1.171875 -45.875 C 2.960938 -47 5.429688 -48.722656 8.578125 -51.046875 C 9.453125 -53.179688 10.597656 -56.570312 12.015625 -61.21875 C 12.203125 -61.851562 12.421875 -62.46875 12.671875 -63.0625 C 15.117188 -63.6875 17.910156 -64 21.046875 -64 C 24.191406 -64 27.285156 -63.671875 30.328125 -63.015625 L 30.328125 -51.46875 L 38.484375 -51.46875 C 40.296875 -48.707031 41.203125 -45.460938 41.203125 -41.734375 C 41.203125 -40.035156 40.96875 -38.289062 40.5 -36.5 C 40.03125 -34.707031 39.359375 -33.1875 38.484375 -31.9375 L 31.75 -31.9375 L 31.75 -24.8125 C 31.75 -20.800781 33.425781 -18.796875 36.78125 -18.796875 L 38.8125 -18.796875 C 39.46875 -16.410156 39.796875 -14.335938 39.796875 -12.578125 C 39.796875 -8.242188 38.4375 -4.921875 35.71875 -2.609375 C 33.007812 -0.304688 29.070312 0.84375 23.90625 0.84375 C 18.738281 0.84375 14.625 -0.585938 11.5625 -3.453125 C 8.5 -6.328125 6.96875 -10.5625 6.96875 -16.15625 Z M 6.96875 -29.765625 "/></g></g></g><g fill="#000000" fill-opacity="1"><g transform="translate(341.709627, 269.839435)"><g><path d="M 25.71875 -42.390625 L 25.71875 -23.734375 C 25.71875 -19.054688 26.847656 -16.007812 29.109375 -14.59375 C 29.140625 -14.4375 29.15625 -14.140625 29.15625 -13.703125 L 29.15625 -12.859375 C 29.15625 -8.242188 27.898438 -4.773438 25.390625 -2.453125 C 23.066406 -0.253906 19.960938 0.84375 16.078125 0.84375 C 12.203125 0.84375 9.007812 -0.253906 6.5 -2.453125 C 3.332031 -5.242188 1.75 -9.320312 1.75 -14.6875 L 1.75 -45.3125 C 2.3125 -45.71875 2.921875 -46.046875 3.578125 -46.296875 C 4.234375 -46.546875 4.925781 -46.859375 5.65625 -47.234375 C 4.300781 -47.929688 3.070312 -49.132812 1.96875 -50.84375 C 0.875 -52.550781 0.328125 -54.550781 0.328125 -56.84375 C 0.328125 -60.800781 1.628906 -64.035156 4.234375 -66.546875 C 6.835938 -69.054688 10.03125 -70.3125 13.8125 -70.3125 C 17.601562 -70.3125 20.773438 -69.03125 23.328125 -66.46875 C 25.890625 -63.914062 27.171875 -60.707031 27.171875 -56.84375 C 27.171875 -53.738281 26.195312 -51.015625 24.25 -48.671875 C 22.300781 -46.335938 19.929688 -44.867188 17.140625 -44.265625 C 17.140625 -43.078125 17.597656 -42.484375 18.515625 -42.484375 C 20.109375 -42.484375 21.738281 -43.109375 23.40625 -44.359375 C 24.664062 -43.390625 25.4375 -42.734375 25.71875 -42.390625 Z M 25.71875 -42.390625 "/></g></g></g><g fill="#000000" fill-opacity="1"><g transform="translate(0.0000045, 274.836213)"><g><path d="M 150.453125 -52.109375 C 150.453125 -59.472656 149.132812 -65.703125 146.5 -70.796875 C 144.132812 -75.066406 141.632812 -77.203125 139 -77.203125 C 137.269531 -77.203125 136.132812 -76.429688 135.59375 -74.890625 C 140.675781 -69.066406 143.21875 -61.609375 143.21875 -52.515625 C 143.21875 -36.691406 136.988281 -23.890625 124.53125 -14.109375 C 112.070312 -4.335938 95.296875 0.546875 74.203125 0.546875 C 55.554688 0.546875 39.234375 -4.816406 25.234375 -15.546875 C 10.234375 -26.910156 2.734375 -41.1875 2.734375 -58.375 C 2.734375 -70.019531 6.867188 -78.976562 15.140625 -85.25 C 21.867188 -90.25 30.328125 -92.84375 40.515625 -93.03125 C 40.609375 -81.570312 44.039062 -72.363281 50.8125 -65.40625 C 57.582031 -58.445312 66.695312 -54.96875 78.15625 -54.96875 C 83.707031 -54.96875 86.484375 -56.515625 86.484375 -59.609375 C 86.484375 -60.335938 86.347656 -61.109375 86.078125 -61.921875 C 83.984375 -61.378906 81.660156 -61.109375 79.109375 -61.109375 C 69.203125 -61.109375 61.453125 -63.925781 55.859375 -69.5625 C 50.265625 -75.207031 47.46875 -82.644531 47.46875 -91.875 C 47.46875 -101.101562 50.421875 -108.488281 56.328125 -114.03125 C 62.242188 -119.582031 69.519531 -122.359375 78.15625 -122.359375 C 81.25 -122.359375 83.390625 -122.222656 84.578125 -121.953125 C 84.847656 -122.492188 84.984375 -123.082031 84.984375 -123.71875 C 84.984375 -126.90625 81.957031 -128.5 75.90625 -128.5 C 69.863281 -128.5 63.726562 -126.585938 57.5 -122.765625 C 51.269531 -118.941406 46.425781 -113.625 42.96875 -106.8125 C 31.875 -107.71875 23.050781 -112.535156 16.5 -121.265625 C 10.769531 -128.898438 7.90625 -137.175781 7.90625 -146.09375 C 14 -157.09375 21.773438 -165.957031 31.234375 -172.6875 C 43.691406 -181.414062 58.0625 -185.78125 74.34375 -185.78125 C 94.988281 -185.78125 111.21875 -180.6875 123.03125 -170.5 C 134.851562 -160.320312 140.765625 -146.820312 140.765625 -130 C 140.765625 -125.269531 140.3125 -121.585938 139.40625 -118.953125 C 140.132812 -118.398438 141.203125 -118.125 142.609375 -118.125 C 144.023438 -118.125 145.273438 -119.304688 146.359375 -121.671875 C 147.453125 -124.035156 148 -127.3125 148 -131.5 C 148 -146.132812 143.632812 -158.457031 134.90625 -168.46875 C 135.445312 -173.550781 138.175781 -177.914062 143.09375 -181.5625 L 213.75 -181.5625 C 216.84375 -176.738281 219 -172.550781 220.21875 -169 C 221.445312 -165.457031 222.0625 -161.273438 222.0625 -156.453125 C 222.0625 -147.816406 219.289062 -139.632812 213.75 -131.90625 L 206.921875 -131.90625 L 206.921875 -52.515625 C 206.921875 -46.515625 207.507812 -41.535156 208.6875 -37.578125 C 209.875 -33.617188 211.878906 -29.957031 214.703125 -26.59375 C 213.066406 -17.957031 209.019531 -11.179688 202.5625 -6.265625 C 196.101562 -1.359375 188.394531 1.09375 179.4375 1.09375 C 170.476562 1.09375 162.613281 -0.882812 155.84375 -4.84375 C 149.070312 -8.800781 144.503906 -14.78125 142.140625 -22.78125 C 147.679688 -31.78125 150.453125 -41.554688 150.453125 -52.109375 Z M 150.453125 -52.109375 "/></g></g></g><g fill="#ff91a4" fill-opacity="1"><g transform="translate(0.0000045, 271.85897)"><g><path d="M 146.453125 -50.71875 C 146.453125 -57.894531 145.171875 -63.957031 142.609375 -68.90625 C 140.304688 -73.070312 137.875 -75.15625 135.3125 -75.15625 C 133.625 -75.15625 132.515625 -74.398438 131.984375 -72.890625 C 136.941406 -67.234375 139.421875 -59.976562 139.421875 -51.125 C 139.421875 -35.71875 133.351562 -23.253906 121.21875 -13.734375 C 109.09375 -4.222656 92.765625 0.53125 72.234375 0.53125 C 54.085938 0.53125 38.195312 -4.691406 24.5625 -15.140625 C 9.957031 -26.203125 2.65625 -40.097656 2.65625 -56.828125 C 2.65625 -68.160156 6.679688 -76.878906 14.734375 -82.984375 C 21.285156 -87.859375 29.519531 -90.382812 39.4375 -90.5625 C 39.519531 -79.40625 42.859375 -70.441406 49.453125 -63.671875 C 56.054688 -56.898438 64.929688 -53.515625 76.078125 -53.515625 C 81.484375 -53.515625 84.1875 -55.019531 84.1875 -58.03125 C 84.1875 -58.738281 84.050781 -59.488281 83.78125 -60.28125 C 81.75 -59.75 79.492188 -59.484375 77.015625 -59.484375 C 67.367188 -59.484375 59.820312 -62.226562 54.375 -67.71875 C 48.925781 -73.207031 46.203125 -80.441406 46.203125 -89.421875 C 46.203125 -98.410156 49.078125 -105.601562 54.828125 -111 C 60.585938 -116.40625 67.671875 -119.109375 76.078125 -119.109375 C 79.085938 -119.109375 81.171875 -118.972656 82.328125 -118.703125 C 82.585938 -119.234375 82.71875 -119.8125 82.71875 -120.4375 C 82.71875 -123.53125 79.773438 -125.078125 73.890625 -125.078125 C 68.003906 -125.078125 62.03125 -123.21875 55.96875 -119.5 C 49.90625 -115.78125 45.191406 -110.601562 41.828125 -103.96875 C 31.023438 -104.851562 22.4375 -109.546875 16.0625 -118.046875 C 10.488281 -125.484375 7.703125 -133.535156 7.703125 -142.203125 C 13.628906 -152.921875 21.195312 -161.554688 30.40625 -168.109375 C 42.53125 -176.597656 56.515625 -180.84375 72.359375 -180.84375 C 92.453125 -180.84375 108.253906 -175.882812 119.765625 -165.96875 C 131.273438 -156.0625 137.03125 -142.921875 137.03125 -126.546875 C 137.03125 -121.941406 136.585938 -118.351562 135.703125 -115.78125 C 136.410156 -115.25 137.445312 -114.984375 138.8125 -114.984375 C 140.1875 -114.984375 141.40625 -116.132812 142.46875 -118.4375 C 143.53125 -120.738281 144.0625 -123.925781 144.0625 -128 C 144.0625 -142.25 139.816406 -154.242188 131.328125 -163.984375 C 131.859375 -168.941406 134.507812 -173.191406 139.28125 -176.734375 L 208.0625 -176.734375 C 211.070312 -172.046875 213.175781 -167.972656 214.375 -164.515625 C 215.570312 -161.066406 216.171875 -156.992188 216.171875 -152.296875 C 216.171875 -143.890625 213.46875 -135.925781 208.0625 -128.40625 L 201.4375 -128.40625 L 201.4375 -51.125 C 201.4375 -45.28125 202.007812 -40.429688 203.15625 -36.578125 C 204.300781 -32.734375 206.25 -29.171875 209 -25.890625 C 207.40625 -17.484375 203.460938 -10.890625 197.171875 -6.109375 C 190.890625 -1.328125 183.390625 1.0625 174.671875 1.0625 C 165.953125 1.0625 158.296875 -0.859375 151.703125 -4.703125 C 145.109375 -8.554688 140.660156 -14.378906 138.359375 -22.171875 C 143.753906 -30.929688 146.453125 -40.445312 146.453125 -50.71875 Z M 146.453125 -50.71875 "/></g></g></g><g fill="#ff91a4" fill-opacity="1"><g transform="translate(217.148251, 265.665945)"><g><path d="M 27.265625 -32.109375 C 26.960938 -32.410156 26.597656 -32.5625 26.171875 -32.5625 C 25.503906 -32.5625 25.050781 -32.082031 24.8125 -31.125 C 24.570312 -30.175781 24.453125 -28.253906 24.453125 -25.359375 L 24.453125 -20.734375 C 24.453125 -19.921875 24.554688 -19.347656 24.765625 -19.015625 C 24.972656 -18.679688 25.316406 -18.515625 25.796875 -18.515625 C 26.285156 -18.515625 26.632812 -18.625 26.84375 -18.84375 L 26.84375 -24.90625 C 26.84375 -27.863281 26.984375 -30.265625 27.265625 -32.109375 Z M 24 -58.859375 C 25.601562 -60.734375 27.367188 -62.144531 29.296875 -63.09375 C 31.222656 -64.050781 33.679688 -64.53125 36.671875 -64.53125 C 40.296875 -64.53125 43.238281 -63.515625 45.5 -61.484375 C 47.832031 -59.316406 49 -56.390625 49 -52.703125 L 49 -22.828125 C 49 -18.328125 50.082031 -15.394531 52.25 -14.03125 C 52.28125 -13.882812 52.296875 -13.597656 52.296875 -13.171875 L 52.296875 -12.359375 C 52.296875 -8.078125 51 -4.742188 48.40625 -2.359375 C 46.113281 -0.242188 43.273438 0.8125 39.890625 0.8125 C 37.535156 0.8125 35.5 0.316406 33.78125 -0.671875 C 31.757812 -1.828125 30.335938 -3.398438 29.515625 -5.390625 C 28.492188 -5.390625 27.984375 -4.890625 27.984375 -3.890625 C 27.984375 -3.441406 28.15625 -2.921875 28.5 -2.328125 C 28.851562 -1.742188 29.332031 -1.222656 29.9375 -0.765625 C 28.15625 0.285156 25.84375 0.8125 23 0.8125 C 19.164062 0.8125 15.582031 -0.0664062 12.25 -1.828125 C 8.914062 -3.597656 6.265625 -6.265625 4.296875 -9.828125 C 2.035156 -13.898438 0.90625 -18.832031 0.90625 -24.625 C 0.90625 -32.351562 3.070312 -38.421875 7.40625 -42.828125 C 11.738281 -47.242188 17.269531 -49.453125 24 -49.453125 C 27.976562 -49.453125 31.445312 -48.695312 34.40625 -47.1875 C 34.738281 -47.519531 34.90625 -47.863281 34.90625 -48.21875 C 34.90625 -49.125 33.832031 -49.894531 31.6875 -50.53125 C 29.550781 -51.164062 27.394531 -51.484375 25.21875 -51.484375 C 25.21875 -54.566406 24.8125 -57.023438 24 -58.859375 Z M 24 -58.859375 "/></g></g></g><g fill="#ff91a4" fill-opacity="1"><g transform="translate(269.082332, 265.665945)"><g><path d="M 24.71875 -40.75 L 24.71875 -22.828125 C 24.71875 -18.328125 25.804688 -15.394531 27.984375 -14.03125 C 28.015625 -13.882812 28.03125 -13.597656 28.03125 -13.171875 L 28.03125 -12.359375 C 28.03125 -7.921875 26.820312 -4.585938 24.40625 -2.359375 C 22.175781 -0.242188 19.195312 0.8125 15.46875 0.8125 C 11.738281 0.8125 8.664062 -0.242188 6.25 -2.359375 C 3.195312 -5.046875 1.671875 -8.96875 1.671875 -14.125 L 1.671875 -43.5625 C 2.210938 -43.957031 2.800781 -44.273438 3.4375 -44.515625 C 4.070312 -44.753906 4.738281 -45.054688 5.4375 -45.421875 C 4.132812 -46.078125 2.953125 -47.226562 1.890625 -48.875 C 0.835938 -50.519531 0.3125 -52.445312 0.3125 -54.65625 C 0.3125 -58.457031 1.5625 -61.566406 4.0625 -63.984375 C 6.570312 -66.398438 9.644531 -67.609375 13.28125 -67.609375 C 16.925781 -67.609375 19.976562 -66.375 22.4375 -63.90625 C 24.894531 -61.445312 26.125 -58.363281 26.125 -54.65625 C 26.125 -51.664062 25.1875 -49.046875 23.3125 -46.796875 C 21.445312 -44.546875 19.171875 -43.132812 16.484375 -42.5625 C 16.484375 -41.414062 16.921875 -40.84375 17.796875 -40.84375 C 19.335938 -40.84375 20.90625 -41.445312 22.5 -42.65625 C 23.707031 -41.71875 24.445312 -41.082031 24.71875 -40.75 Z M 24.71875 -40.75 "/></g></g></g><g fill="#ff91a4" fill-opacity="1"><g transform="translate(296.747304, 265.665945)"><g><path d="M 6.703125 -28.625 L 9.515625 -28.625 C 11.015625 -28.625 11.765625 -29.117188 11.765625 -30.109375 C 11.765625 -30.234375 11.738281 -30.414062 11.6875 -30.65625 L 1.546875 -30.65625 C 0.878906 -32.769531 0.546875 -35.128906 0.546875 -37.734375 C 0.546875 -40.347656 0.738281 -42.472656 1.125 -44.109375 C 2.851562 -45.191406 5.222656 -46.847656 8.234375 -49.078125 C 9.085938 -51.128906 10.191406 -54.390625 11.546875 -58.859375 C 11.722656 -59.460938 11.9375 -60.050781 12.1875 -60.625 C 14.539062 -61.226562 17.222656 -61.53125 20.234375 -61.53125 C 23.253906 -61.53125 26.226562 -61.210938 29.15625 -60.578125 L 29.15625 -49.484375 L 37 -49.484375 C 38.75 -46.828125 39.625 -43.707031 39.625 -40.125 C 39.625 -38.488281 39.394531 -36.8125 38.9375 -35.09375 C 38.488281 -33.375 37.84375 -31.910156 37 -30.703125 L 30.515625 -30.703125 L 30.515625 -23.859375 C 30.515625 -19.992188 32.128906 -18.0625 35.359375 -18.0625 L 37.3125 -18.0625 C 37.945312 -15.769531 38.265625 -13.78125 38.265625 -12.09375 C 38.265625 -7.925781 36.957031 -4.734375 34.34375 -2.515625 C 31.726562 -0.296875 27.9375 0.8125 22.96875 0.8125 C 18.007812 0.8125 14.054688 -0.566406 11.109375 -3.328125 C 8.171875 -6.085938 6.703125 -10.15625 6.703125 -15.53125 Z M 6.703125 -28.625 "/></g></g></g><g fill="#ff91a4" fill-opacity="1"><g transform="translate(336.909055, 265.665945)"><g><path d="M 24.71875 -40.75 L 24.71875 -22.828125 C 24.71875 -18.328125 25.804688 -15.394531 27.984375 -14.03125 C 28.015625 -13.882812 28.03125 -13.597656 28.03125 -13.171875 L 28.03125 -12.359375 C 28.03125 -7.921875 26.820312 -4.585938 24.40625 -2.359375 C 22.175781 -0.242188 19.195312 0.8125 15.46875 0.8125 C 11.738281 0.8125 8.664062 -0.242188 6.25 -2.359375 C 3.195312 -5.046875 1.671875 -8.96875 1.671875 -14.125 L 1.671875 -43.5625 C 2.210938 -43.957031 2.800781 -44.273438 3.4375 -44.515625 C 4.070312 -44.753906 4.738281 -45.054688 5.4375 -45.421875 C 4.132812 -46.078125 2.953125 -47.226562 1.890625 -48.875 C 0.835938 -50.519531 0.3125 -52.445312 0.3125 -54.65625 C 0.3125 -58.457031 1.5625 -61.566406 4.0625 -63.984375 C 6.570312 -66.398438 9.644531 -67.609375 13.28125 -67.609375 C 16.925781 -67.609375 19.976562 -66.375 22.4375 -63.90625 C 24.894531 -61.445312 26.125 -58.363281 26.125 -54.65625 C 26.125 -51.664062 25.1875 -49.046875 23.3125 -46.796875 C 21.445312 -44.546875 19.171875 -43.132812 16.484375 -42.5625 C 16.484375 -41.414062 16.921875 -40.84375 17.796875 -40.84375 C 19.335938 -40.84375 20.90625 -41.445312 22.5 -42.65625 C 23.707031 -41.71875 24.445312 -41.082031 24.71875 -40.75 Z M 24.71875 -40.75 "/></g></g></g></svg>